<svg height="48" viewBox="0 0 48 48" width="48" xmlns="http://www.w3.org/2000/svg" xmlns:xlink="http://www.w3.org/1999/xlink"><defs><path id="a" d="m24 48c23.814834 0 24-10.745166 24-24s-.185166-24-24-24c-23.81483399 0-24 10.745166-24 24s.18516601 24 24 24z"/></defs><g fill="none" fill-rule="evenodd"><use fill="#0091ff" xlink:href="#a"/><use fill="#fff" fill-opacity=".2" xlink:href="#a"/><g transform="translate(9 11)"><path d="m7 7.61323363c1.00465823-4.3332124 5.7271878-7.61323363 11.4013714-7.61323363 6.4057457 0 11.5986286 4.1803177 11.5986286 9.33700091 0 2.84494509-1.5805761 5.39271039-4.0733912 7.10527849.0544518 1.3152895.5663906 2.2666858 1.5358165 2.8541891 1.6322665.9892061-2.7880185 1.1924034-5.3599118-1.1079241-.0495219.0134136-.0991932.0265655-.1490114.0394535.3396546-.8403689.5230631-1.736337.5230631-2.6663297 0-4.8129043-4.9121866-8.7145342-10.9716757-8.7145342-1.60551804 0-3.13049146.2739078-4.5048895.76609963z" fill="#0074cc"/><path d="m5 11h13v9h-13z" fill="#0074cc"/><path d="m11.5 24.6740018c-1.283154 0-2.51722421-.1706259-3.66966958-.4854574-2.55002324 2.3003275-6.93272044 2.0971302-5.3143339 1.1079241.96118235-.5875033 1.46876792-1.5388996 1.52275671-2.8541891-2.4716175-1.7125681-4.03875323-4.2603334-4.03875323-7.1052785 0-5.1566832 5.14872538-9.3370009 11.5-9.3370009 6.3512746 0 11.5 4.1803177 11.5 9.3370009s-5.1487254 9.3370009-11.5 9.3370009zm-4.5-12.6740018c-.55228475 0-1 .4477153-1 1s.44771525 1 1 1h9c.5522847 0 1-.4477153 1-1s-.4477153-1-1-1zm0 4c-.55228475 0-1 .4477153-1 1s.44771525 1 1 1h6c.5522847 0 1-.4477153 1-1s-.4477153-1-1-1z" fill="#fff"/></g></g></svg>