<svg width="1000" height="1000" viewBox="0 0 1000 1000" xmlns="http://www.w3.org/2000/svg">
<!-- <g id="Page-1" fill="none" fill-rule="evenodd"> -->
	<!-- <g id="Artboard"> -->
		<!-- <g id="header-pattern"> -->
			<g id="rectangles" fill="#000">
				<path opacity=".6" d="M0 0h100v100H0z"/>
				<path opacity=".1" d="M0 100h100v100H0z"/>
				<path opacity=".05" d="M0 200h100v100H0z"/>
				<path opacity=".5" d="M0 300h100v100H0z"/>
				<path opacity=".1" d="M0 400h100v100H0z"/>
				<path opacity=".7" d="M0 500h100v100H0z"/>
				<path opacity=".15" d="M0 600h100v100H0z"/>
				<path opacity=".3" d="M0 700h100v100H0z"/>
				<path opacity=".7" d="M0 800h100v100H0z"/>
				<path opacity=".2" d="M0 900h100v100H0zM100 0h100v100H100z"/>
				<path opacity=".15" d="M100 100h100v100H100z"/>
				<path opacity=".7" d="M100 200h100v100H100z"/>
				<path opacity=".65" d="M100 300h100v100H100z"/>
				<path opacity=".1" d="M100 400h100v100H100z"/>
				<path opacity=".2" d="M100 500h100v100H100z"/>
				<path opacity=".7" d="M100 600h100v100H100z"/>
				<path opacity=".05" d="M100 700h100v100H100z"/>
				<path opacity=".1" d="M100 800h100v100H100z"/>
				<path opacity=".7" d="M100 900h100v100H100z"/>
				<path opacity=".4" d="M200 0h100v100H200z"/>
				<path opacity=".7" d="M200 100h100v100H200z"/>
				<path opacity=".4" d="M200 200h100v100H200z"/>
				<path opacity=".15" d="M200 300h100v100H200z"/>
				<path opacity=".7" d="M200 400h100v100H200z"/>
				<path opacity=".1" d="M200 500h100v100H200z"/>
				<path opacity=".15" d="M200 600h100v100H200z"/>
				<path opacity=".3" d="M200 700h100v100H200z"/>
				<path opacity=".15" d="M200 800h100v100H200z"/>
				<path opacity=".4" d="M200 900h100v100H200z"/>
				<path opacity=".1" d="M300 0h100v100H300z"/>
				<path opacity=".3" d="M300 100h100v100H300z"/>
				<path opacity=".15" d="M300 200h100v100H300z"/>
				<path opacity=".05" d="M300 300h100v100H300z"/>
				<path opacity=".15" d="M300 400h100v100H300z"/>
				<path opacity=".25" d="M300 500h100v100H300z"/>
				<path opacity=".2" d="M300 600h100v100H300z"/>
				<path opacity=".15" d="M300 700h100v100H300z"/>
				<path opacity=".2" d="M300 800h100v100H300z"/>
				<path opacity=".7" d="M300 900h100v100H300z"/>
				<path opacity=".65" d="M400 0h100v100H400zm0 100h100v100H400z"/>
				<path opacity=".1" d="M400 200h100v100H400z"/>
				<path opacity=".3" d="M400 300h100v100H400z"/>
				<path opacity=".1" d="M400 400h100v100H400z"/>
				<path opacity=".15" d="M400 500h100v100H400z"/>
				<path opacity=".5" d="M400 600h100v100H400z"/>
				<path opacity=".7" d="M400 700h100v100H400z"/>
				<path opacity=".1" d="M400 800h100v100H400zm0 100h100v100H400z"/>
				<path opacity=".3" d="M500 0h100v100H500z"/>
				<path opacity=".05" d="M500 100h100v100H500z"/>
				<path opacity=".15" d="M500 200h100v100H500z"/>
				<path opacity=".05" d="M500 300h100v100H500z"/>
				<path opacity=".5" d="M500 400h100v100H500z"/>
				<path opacity=".1" d="M500 500h100v100H500z"/>
				<path opacity=".3" d="M500 600h100v100H500z"/>
				<path opacity=".15" d="M500 700h100v100H500z"/>
				<path opacity=".05" d="M500 800h100v100H500z"/>
				<path opacity=".2" d="M500 900h100v100H500z"/>
				<path opacity=".7" d="M600 0h100v100H600z"/>
				<path opacity=".3" d="M600 100h100v100H600z"/>
				<path opacity=".2" d="M600 200h100v100H600z"/>
				<path opacity=".65" d="M600 300h100v100H600z"/>
				<path opacity=".1" d="M600 400h100v100H600z"/>
				<path opacity=".05" d="M600 500h100v100H600z"/>
				<path opacity=".1" d="M600 600h100v100H600z"/>
				<path opacity=".05" d="M600 700h100v100H600z"/>
				<path opacity=".5" d="M600 800h100v100H600z"/>
				<path opacity=".15" d="M600 900h100v100H600z"/>
				<path opacity=".5" d="M700 100h100v100H700z"/>
				<path opacity=".1" d="M700 200h100v100H700z"/>
				<path opacity=".3" d="M700 300h100v100H700z"/>
				<path opacity=".2" d="M700 400h100v100H700z"/>
				<path opacity=".3" d="M700 500h100v100H700z"/>
				<path opacity=".5" d="M700 600h100v100H700z"/>
				<path opacity=".4" d="M700 700h100v100H700z"/>
				<path opacity=".2" d="M700 800h100v100H700z"/>
				<path opacity=".7" d="M700 900h100v100H700z"/>
				<path opacity=".65" d="M800 0h100v100H800z"/>
				<path opacity=".3" d="M800 100h100v100H800z"/>
				<path opacity=".1" d="M800 200h100v100H800z"/>
				<path opacity=".05" d="M800 400h100v100H800z"/>
				<path opacity=".15" d="M800 500h100v100H800z"/>
				<path opacity=".05" d="M800 600h100v100H800z"/>
				<path opacity=".2" d="M800 700h100v100H800z"/>
				<path opacity=".7" d="M800 800h100v100H800z"/>
				<path opacity=".05" d="M800 900h100v100H800z"/>
				<path opacity=".45" d="M900 0h100v100H900z"/>
				<path opacity=".7" d="M900 100h100v100H900z"/>
				<path opacity=".2" d="M900 200h100v100H900z"/>
				<path opacity=".3" d="M900 300h100v100H900z"/>
				<path opacity=".2" d="M900 400h100v100H900z"/>
				<path opacity=".1" d="M900 500h100v100H900z"/>
				<path opacity=".65" d="M900 600h100v100H900z"/>
				<path opacity=".7" d="M900 700h100v100H900z"/>
				<path opacity=".1" d="M900 800h100v100H900z"/>
				<path opacity=".5" d="M900 900h100v100H900z"/>
			</g>
		<!-- </g> -->
	<!-- </g> -->
<!-- </g> -->
</svg>