<?xml version="1.0" encoding="UTF-8"?>
<svg width="1000px" height="296px" viewBox="0 0 1000 296" version="1.1" xmlns="http://www.w3.org/2000/svg" xmlns:xlink="http://www.w3.org/1999/xlink">
    <!-- Generator: Sketch Experimental 61 (88704) - https://sketch.com -->
    <title>awesome-mobile</title>
    <desc>Created with Sketch Experimental.</desc>
    <g id="Page-1" stroke="none" stroke-width="1" fill="none" fill-rule="evenodd">
        <g id="awesome-mobile" fill-rule="nonzero">
            <rect id="Rectangle" fill="#F2FAF5" x="0" y="0" width="1000" height="296"></rect>
            <g id="Icon" transform="translate(450.000000, 100.000000)">
                <path d="M34.2731124,0 L66.7268876,0 C78.6443954,0 82.9659718,1.24086001 87.3228345,3.5709357 C91.6796973,5.90101139 95.0989886,9.32030278 97.4290644,13.6771655 C99.7591399,18.0340282 101,22.3556046 101,34.2731124 L101,66.7268876 C101,78.6443954 99.7591399,82.9659718 97.4290644,87.3228345 C95.0989886,91.6796973 91.6796973,95.0989886 87.3228345,97.4290644 C82.9659718,99.7591399 78.6443954,101 66.7268876,101 L34.2731124,101 C22.3556046,101 18.0340282,99.7591399 13.6771655,97.4290644 C9.32030278,95.0989886 5.90101139,91.6796973 3.5709357,87.3228345 C1.24086001,82.9659718 0,78.6443954 0,66.7268876 L0,34.2731124 C0,22.3556046 1.24086001,18.0340282 3.5709357,13.6771655 C5.90101139,9.32030278 9.32030278,5.90101139 13.6771655,3.5709357 C18.0340282,1.24086001 22.3556046,0 34.2731124,0 Z" id="Rectangle-Copy" fill="#2FC763"></path>
                <path d="M47.7792323,0 L66.3507635,22.8365264 C73.8574424,32.0671318 75.6143486,36.192654 76.54624,41.0286754 C77.4781315,45.8646969 76.9722179,50.6576988 75.0509366,55.1951133 C73.1296553,59.7325278 70.5497389,63.4041676 61.2797623,70.8789644 L36.0357483,91.2343425 C29.8605369,96.2136916 25.9604105,98.6523688 22.6088907,100 C18.6842478,99.4109455 16.1926787,98.4356031 13.689472,97.1025594 C9.32868905,94.7802923 5.90632103,91.3724596 3.57414877,87.0301976 C1.24197652,82.6879356 0,78.3808417 0,66.503272 L0,34.1582561 C0,22.2806864 1.24197652,17.9735925 3.57414877,13.6313305 C5.90632103,9.28906851 9.32868905,5.88123588 13.689472,3.55896875 C18.050255,1.23670163 22.3757199,0 34.3039509,0 L47.7792323,0 Z" id="Combined-Shape" fill="#18A849"></path>
                <path d="M18.6851731,99 C16.8478632,98.4583818 15.3274221,97.7789765 13.8026988,96.9681298 C9.40584745,94.6298875 5.95517273,91.1986119 3.60371087,86.8264789 C1.25224901,82.4543459 0,78.117623 0,66.1583458 L0,33.5908243 C0,21.6315471 1.25224901,17.2948241 3.60371087,12.9226912 C5.57506282,9.25730624 8.31897839,6.25318742 11.7452853,4 L23.2246741,9.08222023 C34.2117854,13.9464965 37.6866418,16.8479557 40.7469397,20.762353 C43.8072376,24.6767504 45.5560699,29.2070021 45.9158767,34.1521931 C46.2756835,39.0973843 45.6457932,43.5656499 40.7540162,54.4909933 L27.4327215,84.2429045 C23.8499243,92.2447596 21.325989,96.2394882 18.6851731,99 Z" id="Combined-Shape" fill="#0B7E32"></path>
            </g>
        </g>
    </g>
</svg>