<svg xmlns="http://www.w3.org/2000/svg" width="1680" height="448" viewBox="0 0 1680 448" preserveAspectRatio="xMinYMin" id="abstract-code-lines">
  <rect y="0" width="74" height="16" fill="gray"></rect>
  <rect x="106" y="0" width="224" height="16" fill="gray"></rect>
  <rect x="362" y="0" width="336" height="16" fill="#4d4d4d"></rect>
  <rect x="730" y="0" width="240" height="16" fill="#b3b3b3"></rect>
  <rect x="1002" y="0" width="112" height="16" fill="gray"></rect>
  <rect x="90" y="48" width="112" height="16" fill="#b3b3b3"></rect>
  <rect x="234" y="48" width="160" height="16" fill="gray"></rect>
  <rect x="426" y="48" width="160" height="16" fill="#b3b3b3"></rect>
  <rect x="618" y="48" width="160" height="16" fill="gray"></rect>
  <rect x="90" y="96" width="176" height="16" fill="#4d4d4d"></rect>
  <rect x="298" y="96" width="208" height="16" fill="gray"></rect>
  <rect y="144" width="58" height="16" fill="gray"></rect>
  <rect x="90" y="144" width="160" height="16" fill="gray"></rect>
  <rect x="282" y="144" width="208" height="16" fill="#4d4d4d"></rect>
  <rect x="522" y="144" width="192" height="16" fill="gray"></rect>
  <rect y="192" width="154" height="16" fill="#4d4d4d"></rect>
  <rect x="186" y="192" width="144" height="16" fill="#b3b3b3"></rect>
  <rect x="362" y="192" width="208" height="16" fill="gray"></rect>
  <rect x="90" y="240" width="144" height="16" fill="gray"></rect>
  <rect x="266" y="240" width="80" height="16" fill="gray"></rect>
  <rect x="394" y="240" width="240" height="16" fill="#4d4d4d"></rect>
  <rect x="218" y="288" width="80" height="16" fill="gray"></rect>
  <rect x="330" y="288" width="224" height="16" fill="gray"></rect>
  <rect x="586" y="288" width="80" height="16" fill="#b3b3b3"></rect>
  <rect x="218" y="336" width="176" height="16" fill="#b3b3b3"></rect>
  <rect x="426" y="336" width="144" height="16" fill="#4d4d4d"></rect>
  <rect x="602" y="336" width="192" height="16" fill="gray"></rect>
  <rect y="384" width="122" height="16" fill="gray"></rect>
  <rect x="154" y="384" width="144" height="16" fill="#b3b3b3"></rect>
  <rect x="330" y="384" width="80" height="16" fill="gray"></rect>
  <rect x="458" y="384" width="224" height="16" fill="gray"></rect>
  <rect y="432" width="154" height="16" fill="gray"></rect>
  <rect x="202" y="432" width="144" height="16" fill="gray"></rect>
  <rect x="394" y="432" width="192" height="16" fill="#4d4d4d"></rect>
  <rect x="634" y="432" width="144" height="16" fill="#b3b3b3"></rect>
  <rect x="810" y="432" width="128" height="16" fill="gray"></rect>
</svg>
