<svg height="88" viewBox="0 0 88 88" width="88" xmlns="http://www.w3.org/2000/svg"><g fill="none" fill-rule="evenodd"><path d="m44 88c43.660529 0 44-19.699471 44-44s-.339471-44-44-44c-43.66052899 0-44 19.699471-44 44s.33947101 44 44 44z" fill="#fff"/><g transform="translate(11 22)"><circle cx="13.75" cy="27.5" fill="#ffae00" r="13.75"/><path d="m13.75 30.25h19.25v11h-19.25z" fill="#ffae00"/><path d="m33 30.25h19.25v11h-19.25z" fill="#ec6c00"/><circle cx="33" cy="20.625" fill="#fed305" r="20.625"/><path d="m13.5480885 13.7514523c.0671883-.0009671.1344932-.0014523.2019115-.0014523 7.5939153 0 13.75 6.1560847 13.75 13.75 0 4.3596325-2.028957 8.2453767-5.1941131 10.7644746-5.9537687-3.6172739-9.9308869-10.1639214-9.9308869-17.6394746 0-2.4100758.4133741-4.723603 1.1730885-6.8735477z" fill="#ec6c00"/><circle cx="52.25" cy="27.5" fill="#ec6c00" r="13.75"/><path d="m52.4519115 13.7514523c.7597144 2.1499447 1.1730885 4.4634719 1.1730885 6.8735477 0 7.4755532-3.9771182 14.0222007-9.9308869 17.6394746-3.1651561-2.5190979-5.1941131-6.4048421-5.1941131-10.7644746 0-7.5939153 6.1560847-13.75 13.75-13.75.0674183 0 .1347232.0004852.2019115.0014523z" fill="#ffae00"/></g></g></svg>