<svg width="88" height="88" viewBox="0 0 88 88" xmlns="http://www.w3.org/2000/svg" xmlns:xlink="http://www.w3.org/1999/xlink"><title>icon-mirror</title><defs><path d="M14.357 3.025l17.268-1.822 17.268 1.822s13.369 17.913 13.369 17.65c0 .263-30.637 35.872-30.637 35.872L.988 20.676l13.369-17.65z" id="a"/></defs><g fill="none" fill-rule="evenodd"><path d="M44 88c43.66 0 44-19.7 44-44S87.66 0 44 0 0 19.7 0 44s.34 44 44 44z" fill="#FFF" stroke-opacity="0.07" stroke="#000000"/><g transform="translate(12.25 16)"><mask id="b" fill="#fff"><use xlink:href="#a"/></mask><use fill="#FDB300" xlink:href="#a"/><g mask="url(#b)"><g transform="translate(.988 18.595)"><path fill="#EA6C00" d="M12.4094184 2.08065231L30.6367187 37.9516014 0 2.08065231z"/><path fill="#EA6C00" transform="matrix(-1 0 0 1 91.91 0)" d="M43.0461372 2.08065231L61.2734375 37.9516014 30.6367188 2.08065231z"/><path fill="#FDAD00" d="M12.4094184 2.08065231L48.8640191 2.08065231 30.6367187 37.9516014z"/></g></g><g mask="url(#b)"><g transform="translate(.988 1.203)"><path fill="#FDD231" d="M30.6367187 0L13.36875 1.82214355 12.4094184 19.4728009z"/><path fill="#FDD231" transform="matrix(-1 0 0 1 79.5 0)" d="M48.8640191 0L31.5960503 1.82214355 30.6367188 19.4728009z"/><path fill="#FDAD00" transform="matrix(-1 0 0 1 109.178 0)" d="M47.9046875 19.4728009L61.2734375 1.82214355 60.3175579 19.4728009z"/><path fill="#FDAD00" d="M0 19.4728009L13.36875 1.82214355 12.4094184 19.4728009z"/><path fill="#FEEEB7" d="M30.6367187 0L12.4094184 19.4728009 48.8605671 19.4728009z"/></g></g></g></g></svg>
